<?xml version="1.0" encoding="UTF-8"?>
<!-- Generator: visioncortex VTracer 0.6.4 -->
<svg version="1.1" xmlns="http://www.w3.org/2000/svg" width="954" height="595">
<path d="M0 0 C314.82 0 629.64 0 954 0 C954 196.35 954 392.7 954 595 C639.18 595 324.36 595 0 595 C0 398.65 0 202.3 0 0 Z " fill="#000000" transform="translate(0,0)"/>
<path d="M0 0 C0.71 -0 1.42 -0.01 2.14 -0.01 C4.51 -0.03 6.88 -0.02 9.24 -0.02 C10.94 -0.03 12.64 -0.04 14.34 -0.04 C18.95 -0.06 23.56 -0.07 28.17 -0.07 C31.06 -0.07 33.94 -0.07 36.82 -0.08 C46.89 -0.1 56.96 -0.1 67.03 -0.1 C76.4 -0.1 85.77 -0.12 95.14 -0.15 C103.2 -0.18 111.26 -0.19 119.31 -0.19 C124.12 -0.19 128.92 -0.2 133.73 -0.22 C138.26 -0.24 142.78 -0.24 147.31 -0.22 C148.96 -0.22 150.62 -0.22 152.27 -0.24 C164.39 -0.32 174.06 0.8 183.18 9.49 C192.52 19.34 192.31 31.92 192.26 44.73 C192.27 46.37 192.28 48 192.29 49.64 C192.3 54.05 192.3 58.47 192.3 62.88 C192.29 66.58 192.3 70.27 192.31 73.97 C192.32 82.7 192.32 91.43 192.31 100.16 C192.29 109.14 192.31 118.11 192.34 127.09 C192.36 134.83 192.36 142.56 192.36 150.29 C192.36 154.9 192.36 159.51 192.37 164.12 C192.39 168.45 192.39 172.79 192.37 177.12 C192.36 178.7 192.37 180.29 192.38 181.87 C192.46 194.7 191.46 206.86 182.01 216.46 C178.87 219.1 175.67 220.8 171.86 222.27 C171.14 222.61 170.42 222.95 169.68 223.3 C166.23 224.48 163.37 224.53 159.71 224.53 C158.65 224.54 158.65 224.54 157.57 224.55 C155.2 224.56 152.83 224.56 150.46 224.56 C148.76 224.56 147.06 224.57 145.36 224.58 C140.75 224.6 136.13 224.6 131.51 224.6 C128.63 224.6 125.74 224.61 122.86 224.61 C112.78 224.63 102.71 224.64 92.64 224.64 C83.26 224.64 73.88 224.66 64.5 224.69 C56.44 224.72 48.38 224.73 40.32 224.73 C35.5 224.72 30.69 224.73 25.88 224.75 C21.36 224.77 16.83 224.77 12.3 224.76 C10.64 224.75 8.99 224.76 7.33 224.77 C-1.23 224.83 -8.58 224.78 -16.14 220.27 C-17.47 219.59 -18.8 218.92 -20.14 218.27 C-20.14 217.61 -20.14 216.95 -20.14 216.27 C-20.75 216.01 -21.35 215.76 -21.98 215.49 C-24.41 214.11 -25.27 213.01 -26.7 210.64 C-27.1 210.01 -27.49 209.38 -27.89 208.73 C-32.46 199.71 -32.57 191.67 -32.54 181.73 C-32.55 180.05 -32.56 178.37 -32.56 176.69 C-32.58 172.14 -32.58 167.6 -32.58 163.05 C-32.57 159.25 -32.58 155.45 -32.58 151.65 C-32.6 142.67 -32.6 133.7 -32.59 124.73 C-32.57 115.49 -32.59 106.25 -32.62 97 C-32.64 89.06 -32.64 81.11 -32.64 73.16 C-32.63 68.42 -32.64 63.67 -32.65 58.93 C-32.67 54.47 -32.67 50.01 -32.65 45.55 C-32.64 43.92 -32.65 42.29 -32.66 40.66 C-32.71 31.86 -32.45 24.2 -28.14 16.27 C-27.81 15.66 -27.48 15.04 -27.13 14.41 C-25.27 11.32 -23.56 9.49 -20.14 8.27 C-20.14 7.61 -20.14 6.95 -20.14 6.27 C-18.91 5.64 -17.68 5.02 -16.45 4.39 C-15.77 4.04 -15.08 3.7 -14.38 3.34 C-13.64 2.98 -12.9 2.63 -12.14 2.27 C-11.05 1.75 -11.05 1.75 -9.95 1.22 C-6.5 0.05 -3.64 0.01 0 0 Z " fill="#FEFEFE" transform="translate(407.1396942138672,91.73257446289063)"/>
<path d="M0 0 C4.62 2.51 6.53 6.08 8 11 C8.36 14.04 8.33 17.01 8.25 20.06 C8.24 20.84 8.24 21.62 8.23 22.42 C8.18 26.71 7.84 30.78 7 35 C7.59 35.27 8.18 35.53 8.78 35.8 C15.03 39.17 19.9 45.24 22 52 C22.63 56.3 22.49 59.77 20.88 63.81 C17.73 67.48 13.88 70.43 9 71 C3 71.25 -1.99 70.54 -7.75 68.88 C-8.54 68.66 -9.32 68.44 -10.13 68.21 C-15.86 66.53 -20.92 64.27 -26.03 61.14 C-33.27 58.36 -41.28 60.1 -48.62 61.81 C-49.55 62.03 -50.47 62.24 -51.43 62.46 C-76.02 68.5 -101.07 77.8 -123.59 89.32 C-127 91 -127 91 -129 91 C-129 91.66 -129 92.32 -129 93 C-128.13 93.27 -127.26 93.54 -126.37 93.81 C-123.09 94.97 -120.2 96.35 -117.13 97.98 C-116.01 98.58 -114.89 99.18 -113.74 99.8 C-112.53 100.45 -111.33 101.1 -110.12 101.75 C-109.51 102.08 -108.89 102.41 -108.26 102.76 C-97.66 108.46 -87.24 114.43 -76.88 120.55 C-69.66 124.81 -62.36 128.91 -55.04 133 C-54.13 133.51 -53.22 134.02 -52.29 134.55 C-51.48 135 -50.67 135.45 -49.84 135.92 C-48 137 -48 137 -47 138 C-44.96 138.34 -42.92 138.61 -40.87 138.87 C-39.59 139.03 -38.32 139.19 -37.01 139.36 C-36.33 139.44 -35.66 139.53 -34.96 139.61 C5.58 144.72 5.58 144.72 20 155 C20.78 155.56 21.57 156.11 22.38 156.69 C24.52 159.74 24.75 161.93 24.57 165.62 C23.16 171.47 18.17 175.41 13.38 178.69 C6.02 182.9 -2.38 187 -11 186 C-11.03 187.24 -11.03 187.24 -11.06 188.5 C-12.65 194.42 -16.38 198.37 -21.55 201.59 C-29.31 205.56 -37.61 208.01 -46.29 205.28 C-57.75 199.8 -63.57 190.46 -67.81 178.75 C-68.99 175.28 -70.04 171.84 -70.94 168.29 C-73.99 158.84 -86.97 153.14 -95 148 C-95.87 147.44 -96.73 146.88 -97.63 146.31 C-115.86 134.63 -134.4 123.06 -154.19 114.19 C-154.9 113.87 -155.61 113.55 -156.35 113.22 C-163.06 110.15 -163.06 110.15 -170.16 110.71 C-172.76 111.82 -175.28 113.04 -177.81 114.31 C-178.75 114.77 -179.68 115.23 -180.64 115.7 C-189.36 120.06 -197.72 124.88 -206 130 C-206.92 130.56 -207.84 131.13 -208.79 131.71 C-225.67 142.03 -241.96 152.84 -257.46 165.14 C-260 167 -260 167 -263 168 C-263.09 169.76 -263.09 169.76 -263.19 171.56 C-264.3 181.34 -267.54 193.18 -275 200 C-279.13 202.99 -283.54 204.82 -288.74 204.5 C-299.35 202.14 -307.99 194.81 -314.93 186.76 C-317.59 184.5 -319.11 184.54 -322.56 184.5 C-333.14 183.91 -341.29 180.26 -349 173 C-352.42 169.17 -352.52 165.39 -352.34 160.43 C-351.6 155.12 -348.42 152.17 -344.44 148.94 C-332.36 140.48 -318.26 137.37 -303.75 136.51 C-286.89 135.48 -274.34 132.7 -259.68 123.63 C-255.32 120.97 -250.81 118.6 -246.31 116.19 C-244.51 115.21 -242.72 114.22 -240.92 113.24 C-238.95 112.16 -236.97 111.08 -235 110 C-234.42 109.69 -233.85 109.37 -233.26 109.05 C-229.49 106.99 -225.71 104.93 -221.93 102.89 C-220.7 102.22 -219.47 101.55 -218.24 100.87 C-216.51 99.93 -214.77 98.99 -213.04 98.05 C-212.04 97.51 -211.04 96.97 -210.02 96.41 C-206.69 94.86 -203.55 93.92 -200 93 C-200 92.34 -200 91.68 -200 91 C-200.87 90.88 -201.73 90.76 -202.62 90.64 C-205.98 90 -208.84 89.05 -212.02 87.81 C-213.75 87.14 -213.75 87.14 -215.52 86.46 C-216.13 86.22 -216.73 85.98 -217.36 85.74 C-220.6 84.47 -223.86 83.23 -227.11 81.99 C-227.78 81.74 -228.44 81.48 -229.12 81.22 C-246 74.8 -263.02 69.11 -280.53 64.64 C-282.93 64.02 -285.32 63.37 -287.71 62.71 C-289.14 62.33 -290.57 61.94 -292 61.56 C-293.22 61.23 -294.43 60.91 -295.69 60.57 C-301.33 59.6 -305 60.67 -309.69 63.81 C-320.24 70.32 -329.77 72.3 -342 71 C-345.95 69.83 -348.2 67.91 -350.94 64.81 C-353.15 58.95 -352.59 52.85 -350.27 47.09 C-348.63 44.39 -346.55 42.41 -344.31 40.19 C-340.96 36.72 -340.96 36.72 -339.52 32.27 C-339.59 30.42 -339.7 28.58 -339.86 26.73 C-340.23 19.51 -337.33 13.63 -332.6 8.38 C-328.62 4.95 -325.01 4.5 -319.89 4.63 C-305.58 6.45 -292.42 16.34 -282.09 25.86 C-273.42 31.87 -262.36 34.75 -252.48 38.33 C-236.45 44.15 -220.51 50.23 -204.62 56.44 C-203.18 57 -203.18 57 -201.7 57.58 C-198.89 58.67 -196.09 59.77 -193.29 60.87 C-192.4 61.22 -191.52 61.56 -190.6 61.92 C-185.74 63.84 -180.99 65.91 -176.27 68.14 C-168.23 71.89 -163.5 72.99 -155.08 69.94 C-151.62 68.58 -148.22 67.12 -144.81 65.62 C-142.24 64.52 -139.67 63.44 -137.09 62.35 C-136.43 62.07 -135.77 61.8 -135.09 61.51 C-127.77 58.45 -120.34 55.7 -112.88 53 C-111.65 52.56 -110.43 52.11 -109.16 51.65 C-106.85 50.82 -104.54 49.99 -102.22 49.16 C-99.2 48.07 -96.18 46.96 -93.17 45.84 C-88.64 44.19 -84.09 42.8 -79.44 41.56 C-77.89 41.14 -76.34 40.72 -74.79 40.3 C-74 40.09 -73.22 39.88 -72.41 39.66 C-69.96 38.99 -67.52 38.3 -65.09 37.61 C-64.29 37.38 -63.49 37.15 -62.66 36.92 C-61.14 36.49 -59.62 36.05 -58.1 35.61 C-54.71 34.65 -51.72 33.97 -48.18 33.66 C-44.9 33.32 -44.9 33.32 -43.21 30.92 C-42.75 30.02 -42.29 29.12 -41.81 28.19 C-33.82 14.5 -17.04 -2.1 0 0 Z " fill="#FDFDFD" transform="translate(645,341)"/>
<path d="M0 0 C28.71 0 57.42 0 87 0 C87.08 29.26 87.08 29.26 87.1 43.76 C87.11 51.59 87.13 59.42 87.15 67.25 C87.17 73.45 87.18 79.65 87.19 85.86 C87.19 89.14 87.2 92.41 87.21 95.69 C87.23 99.37 87.23 103.04 87.23 106.71 C87.23 107.78 87.24 108.85 87.25 109.96 C87.2 126.54 83.15 139.81 73 153 C72.28 154.01 71.56 155.02 70.81 156.06 C59.79 168.78 45.04 173.8 29 176 C27.68 176 26.36 176 25 176 C22.28 166.41 19.64 156.79 17.19 147.12 C16.97 146.28 16.75 145.43 16.52 144.55 C16.32 143.75 16.12 142.96 15.92 142.13 C15.74 141.43 15.56 140.73 15.38 140 C15 138 15 138 15 134 C16.06 133.99 17.12 133.97 18.22 133.96 C28.04 133.68 34.21 132.79 41.38 125.62 C44.74 120.19 45.25 114.7 45.23 108.41 C45.23 107.69 45.23 106.97 45.23 106.22 C45.23 103.86 45.21 101.49 45.2 99.13 C45.19 97.48 45.19 95.83 45.19 94.18 C45.18 89.86 45.16 85.54 45.14 81.22 C45.11 76.02 45.1 70.82 45.09 65.63 C45.07 57.75 45.03 49.88 45 42 C30.15 41.67 15.3 41.34 0 41 C0 27.47 0 13.94 0 0 Z " fill="#000000" transform="translate(444,116)"/>
</svg>
