<?xml version="1.0" encoding="UTF-8"?>
<!-- Generator: visioncortex VTracer 0.6.4 -->
<svg version="1.1" xmlns="http://www.w3.org/2000/svg" width="2420" height="1514">
<path d="M0 0 C798.6 0 1597.2 0 2420 0 C2420 499.62 2420 999.24 2420 1514 C1621.4 1514 822.8 1514 0 1514 C0 1014.38 0 514.76 0 0 Z " fill="#DF1936" transform="translate(0,0)"/>
<path d="M0 0 C229.02 0 458.04 0 694 0 C694.33 118.47 694.66 236.94 695 359 C700.94 362.3 706.88 365.6 713 369 C716.52 371.26 719.93 373.5 723.31 375.94 C724.14 376.53 724.98 377.12 725.83 377.73 C732.89 382.79 739.52 388.22 746 394 C746.81 394.7 747.62 395.4 748.45 396.12 C760.22 406.42 771.5 417.55 781 430 C781.92 431.16 782.83 432.33 783.75 433.49 C795.25 448.27 805.17 464.19 813.12 481.15 C813.99 482.98 814.89 484.8 815.79 486.62 C820.78 496.76 824.5 507.27 828 518 C828.35 519.06 828.35 519.06 828.71 520.15 C847.05 576.18 845.21 639.71 825 695 C825.79 695.12 826.58 695.25 827.39 695.38 C832.75 696.3 838.07 697.43 843.39 698.54 C844.24 698.71 845.09 698.88 845.96 699.06 C847.09 699.3 847.09 699.3 848.24 699.54 C855.26 700.72 862.17 701.15 869.29 701.13 C870.14 701.13 871 701.13 871.89 701.14 C873.7 701.14 875.51 701.13 877.32 701.13 C880.03 701.13 882.74 701.13 885.46 701.14 C896.01 701.14 906.47 700.82 917 700 C907.01 725.93 878.37 747.13 853.93 758.15 C853.29 758.43 852.66 758.71 852 759 C851.07 759.41 851.07 759.41 850.12 759.83 C831.86 767.8 811.81 773.37 791.85 774.3 C791.05 774.35 790.25 774.4 789.42 774.45 C787.96 774.52 786.49 774.55 785.02 774.53 C781.28 774.72 779.53 775.46 776.86 778.17 C775.33 780.07 773.84 781.99 772.37 783.94 C768.53 788.9 764.07 793.21 759.62 797.62 C758.76 798.5 757.89 799.38 756.99 800.28 C750.97 806.28 744.66 811.72 738 817 C736.92 817.88 735.83 818.76 734.75 819.64 C728.52 824.56 722.08 829 715.38 833.25 C714.61 833.73 713.85 834.22 713.06 834.71 C707.15 838.4 701.15 841.65 695 845 C694.67 1065.77 694.34 1286.54 694 1514 C464.98 1514 235.96 1514 0 1514 C0 1014.38 0 514.76 0 0 Z " fill="#DF1A36" transform="translate(0,0)"/>
<path d="M0 0 C87.78 0 175.56 0 266 0 C266.33 118.47 266.66 236.94 267 359 C275.91 363.95 275.91 363.95 285 369 C288.52 371.26 291.93 373.5 295.31 375.94 C296.14 376.53 296.98 377.12 297.83 377.73 C304.89 382.79 311.52 388.22 318 394 C318.81 394.7 319.62 395.4 320.45 396.12 C332.22 406.42 343.5 417.55 353 430 C353.92 431.16 354.83 432.33 355.75 433.49 C367.25 448.27 377.17 464.19 385.12 481.15 C385.99 482.98 386.89 484.8 387.79 486.62 C392.78 496.76 396.5 507.27 400 518 C400.35 519.06 400.35 519.06 400.71 520.15 C419.05 576.18 417.21 639.71 397 695 C397.79 695.12 398.58 695.25 399.39 695.38 C404.75 696.3 410.07 697.43 415.39 698.54 C416.24 698.71 417.09 698.88 417.96 699.06 C419.09 699.3 419.09 699.3 420.24 699.54 C427.26 700.72 434.17 701.15 441.29 701.13 C442.14 701.13 443 701.13 443.89 701.14 C445.7 701.14 447.51 701.13 449.32 701.13 C452.03 701.13 454.74 701.13 457.46 701.14 C468.01 701.14 478.47 700.82 489 700 C479.01 725.93 450.37 747.13 425.93 758.15 C425.29 758.43 424.66 758.71 424 759 C423.07 759.41 423.07 759.41 422.12 759.83 C403.86 767.8 383.81 773.37 363.85 774.3 C363.05 774.35 362.25 774.4 361.42 774.45 C359.96 774.52 358.49 774.55 357.02 774.53 C353.28 774.72 351.53 775.46 348.86 778.17 C347.33 780.07 345.84 781.99 344.37 783.94 C340.53 788.9 336.07 793.21 331.62 797.62 C330.32 798.94 330.32 798.94 328.99 800.28 C322.97 806.28 316.66 811.72 310 817 C308.92 817.88 307.83 818.76 306.75 819.64 C300.52 824.56 294.08 829 287.38 833.25 C286.61 833.73 285.85 834.22 285.06 834.71 C279.15 838.4 273.15 841.65 267 845 C266.67 1065.77 266.34 1286.54 266 1514 C178.22 1514 90.44 1514 0 1514 C0.05 1493.6 0.11 1473.21 0.16 1452.2 C0.2 1438.58 0.23 1424.96 0.26 1411.34 C0.26 1410.48 0.26 1409.61 0.26 1408.72 C0.33 1379.6 0.37 1350.48 0.39 1321.37 C0.39 1320.42 0.39 1319.47 0.39 1318.49 C0.41 1297.84 0.42 1277.19 0.43 1256.54 C0.44 1246.41 0.45 1236.28 0.45 1226.16 C0.45 1225.15 0.45 1224.14 0.45 1223.1 C0.47 1190.44 0.54 1157.77 0.64 1125.1 C0.74 1091.53 0.79 1057.96 0.78 1024.39 C0.77 1019.65 0.77 1014.91 0.77 1010.17 C0.77 1009.24 0.77 1008.31 0.77 1007.34 C0.77 992.32 0.82 977.3 0.89 962.27 C0.96 947.17 0.98 932.07 0.93 916.97 C0.9 908 0.92 899.02 1.01 890.05 C1.06 884.05 1.05 878.06 1 872.07 C0.97 868.65 0.96 865.24 1.03 861.82 C1.84 848.76 1.84 848.76 -2.56 836.98 C-6.3 833.68 -10.41 831.69 -15.02 829.87 C-18.15 828.49 -20.62 826.54 -23.31 824.44 C-24.75 823.33 -24.75 823.33 -26.21 822.21 C-27.13 821.48 -28.05 820.75 -29 820 C-29.91 819.28 -30.82 818.56 -31.76 817.82 C-43.96 808.02 -55.02 797.12 -66 786 C-71.16 787.61 -74.99 790.79 -79.19 794.06 C-79.94 794.65 -80.7 795.23 -81.48 795.83 C-86.47 799.72 -91.26 803.73 -95.89 808.05 C-97.8 809.81 -99.75 811.47 -101.75 813.12 C-112.57 822.64 -121.57 833.68 -130.03 845.3 C-130.91 846.52 -130.91 846.52 -131.82 847.76 C-132.6 848.84 -132.6 848.84 -133.39 849.95 C-135.11 852.14 -136.99 854.06 -139 856 C-155.95 821.93 -158.22 775.25 -146.51 739.23 C-141.12 723.66 -133.63 709.28 -123.15 696.51 C-120.56 690.85 -123.43 684.21 -125.25 678.62 C-131.98 656.92 -135.27 633.68 -136 611 C-136.03 610.12 -136.06 609.24 -136.09 608.34 C-137.38 561.35 -126.24 514.41 -104 473 C-103.44 471.94 -103.44 471.94 -102.88 470.86 C-96.78 459.25 -89.86 448.5 -82 438 C-81.53 437.38 -81.07 436.75 -80.59 436.11 C-73.92 427.24 -66.71 418.98 -59 411 C-58.4 410.38 -57.8 409.76 -57.19 409.12 C-49.51 401.21 -41.73 393.75 -33 387 C-31.57 385.84 -31.57 385.84 -30.1 384.66 C-28.57 383.43 -28.57 383.43 -27 382.19 C-25.98 381.37 -24.97 380.54 -23.92 379.7 C-21.13 377.62 -18.49 376.32 -15.24 375.09 C-9.52 372.72 -4.72 370.08 -1 365 C2.45 354.83 1.51 343.35 1.29 332.75 C1.22 328.28 1.26 323.81 1.29 319.34 C1.32 311.6 1.28 303.87 1.19 296.13 C1.07 284.95 1.05 273.77 1.06 262.59 C1.07 244.44 0.99 226.3 0.86 208.15 C0.73 190.53 0.65 172.91 0.62 155.29 C0.61 154.19 0.61 153.09 0.61 151.96 C0.59 143.37 0.58 134.78 0.57 126.19 C0.5 84.13 0.24 42.06 0 0 Z " fill="#30302E" transform="translate(428,0)"/>
<path d="M0 0 C40.96 4.92 81.73 26.23 111.75 53.94 C113.73 55.75 115.75 57.47 117.81 59.19 C147.1 84.89 167.52 121.16 179 158 C179.35 159.1 179.35 159.1 179.71 160.23 C185.49 178.59 188.57 197.77 189 217 C189.02 217.66 189.04 218.32 189.06 219 C189.9 247.44 184.77 275.03 176 302 C145.95 288.21 118.86 263.02 99.24 236.64 C98.04 235.05 96.8 233.5 95.56 231.94 C84.68 218.25 75.4 203.33 67 188 C61.84 194.9 57.43 202.18 53.03 209.58 C48.83 216.63 44.56 223.64 40.25 230.62 C39.24 232.27 39.24 232.27 38.21 233.94 C36.83 236.18 35.45 238.42 34.06 240.65 C30.7 246.1 27.35 251.55 24 257 C19.98 263.54 15.96 270.07 11.93 276.61 C5.53 286.99 -0.85 297.39 -7.19 307.81 C-11.55 315 -15.94 322.17 -20.38 329.31 C-20.89 330.15 -21.41 330.98 -21.94 331.84 C-22.47 332.69 -23 333.54 -23.54 334.42 C-27.24 340.38 -30.92 346.34 -34.6 352.31 C-35.32 353.47 -36.04 354.63 -36.76 355.79 C-37.76 357.41 -38.76 359.04 -39.76 360.66 C-40.34 361.59 -40.92 362.53 -41.51 363.49 C-42.78 365.63 -43.93 367.76 -45 370 C-44.43 370.02 -43.87 370.05 -43.28 370.07 C-34.37 370.66 -25.81 372.6 -17.11 374.52 C-14.32 375.14 -11.53 375.74 -8.74 376.35 C-4.96 377.17 -1.17 378 2.62 378.82 C30.8 384.99 58.98 390.7 87.56 394.74 C88.63 394.9 89.69 395.05 90.79 395.2 C91.72 395.33 92.66 395.46 93.63 395.6 C96 396 96 396 99 397 C100.89 397.22 102.79 397.41 104.69 397.56 C106.18 397.69 106.18 397.69 107.7 397.82 C108.46 397.88 109.22 397.94 110 398 C72.4 436.19 13.78 454.41 -38.79 455.18 C-42.19 455.19 -45.59 455.1 -49 455 C-50.27 454.98 -51.53 454.96 -52.84 454.95 C-100.67 453.35 -149.63 434.01 -186 403 C-187.21 401.98 -188.43 400.97 -189.64 399.95 C-190.93 398.86 -192.21 397.78 -193.5 396.69 C-194.11 396.17 -194.73 395.65 -195.36 395.12 C-197.99 392.87 -200.07 390.9 -202 388 C-173.87 379.08 -145.52 372.92 -116 371 C-114.87 370.91 -113.73 370.83 -112.56 370.74 C-101.7 369.96 -90.89 369.88 -80 369.94 C-78.24 369.94 -76.48 369.95 -74.73 369.95 C-70.48 369.96 -66.24 369.98 -62 370 C-65.65 362.55 -69.46 355.24 -73.62 348.06 C-74.14 347.17 -74.66 346.27 -75.19 345.35 C-76.79 342.56 -78.39 339.78 -80 337 C-86.89 325.07 -93.61 313.08 -100.14 300.95 C-105.12 291.73 -110.29 282.63 -115.52 273.56 C-124.2 258.52 -132.72 243.39 -141.19 228.23 C-143.03 224.95 -144.87 221.66 -146.72 218.38 C-152.94 207.32 -159.11 196.24 -165 185 C-168.85 186.28 -170.16 188.59 -172.44 191.75 C-177.41 198.43 -182.89 204.46 -188.61 210.51 C-190.63 212.68 -192.6 214.9 -194.56 217.12 C-201.25 224.58 -208.3 231.69 -215.92 238.2 C-218.43 240.37 -220.87 242.62 -223.31 244.88 C-226.91 248.16 -230.57 251.32 -234.38 254.38 C-240.35 259.2 -245.92 264.41 -251.54 269.64 C-253.55 271.51 -255.58 273.36 -257.62 275.19 C-258.22 275.72 -258.81 276.25 -259.41 276.79 C-261 278 -261 278 -264 279 C-268.17 258.44 -270.62 238 -270 217 C-269.98 215.73 -269.96 214.47 -269.95 213.16 C-268.35 165.33 -249 116.37 -218 80 C-217.05 78.87 -216.11 77.74 -215.16 76.61 C-207.04 66.95 -198.68 58.12 -188.79 50.24 C-187.01 48.81 -185.25 47.35 -183.52 45.86 C-161.58 27 -122.99 2.52 -93 3 C-95.78 14.65 -99.02 26.12 -102.56 37.56 C-102.82 38.41 -103.08 39.25 -103.35 40.12 C-108.44 56.58 -113.97 72.85 -120 89 C-120.44 90.19 -120.88 91.37 -121.34 92.59 C-137.31 135.13 -137.31 135.13 -148.32 151.99 C-149.23 154.05 -149.23 154.05 -148.33 156.36 C-146.83 159.34 -145.33 162.3 -143.76 165.24 C-143.45 165.84 -143.13 166.43 -142.8 167.05 C-141.77 168.99 -140.73 170.93 -139.69 172.88 C-139.33 173.55 -138.97 174.22 -138.6 174.91 C-133.56 184.34 -128.39 193.68 -123.08 202.95 C-117.78 212.27 -112.81 221.75 -107.83 231.23 C-102.68 241.02 -97.41 250.71 -91.9 260.3 C-86.87 269.12 -82.14 278.09 -77.41 287.07 C-72.14 297.06 -66.74 306.95 -61.11 316.75 C-53 330.88 -53 330.88 -53 334 C-52.34 334 -51.68 334 -51 334 C-50.73 333.27 -50.46 332.54 -50.18 331.79 C-49.04 329.1 -47.75 326.82 -46.16 324.37 C-45.6 323.49 -45.04 322.61 -44.46 321.7 C-43.85 320.77 -43.25 319.84 -42.62 318.88 C-41.35 316.89 -40.07 314.9 -38.8 312.91 C-37.84 311.42 -37.84 311.42 -36.86 309.9 C-34.18 305.71 -31.52 301.51 -28.88 297.31 C-27.89 295.76 -26.91 294.2 -25.93 292.64 C-25.45 291.88 -24.96 291.11 -24.47 290.33 C-21.98 286.38 -19.49 282.44 -17 278.5 C-16 276.92 -15 275.33 -14 273.75 C0 251.58 14 229.42 28 207.25 C28.5 206.47 28.99 205.68 29.5 204.87 C30.5 203.3 31.49 201.72 32.49 200.15 C35.07 196.07 37.64 191.98 40.21 187.9 C40.74 187.06 41.27 186.22 41.82 185.35 C42.82 183.76 43.82 182.17 44.82 180.58 C45.28 179.85 45.74 179.12 46.21 178.37 C46.66 177.65 47.11 176.93 47.57 176.19 C48.57 174.66 49.63 173.16 50.72 171.69 C54.12 167.11 54.12 167.11 55.16 161.62 C53.56 156.63 51.58 151.87 49.5 147.06 C36.9 116.9 26.81 85.67 16.44 54.69 C16.07 53.59 15.7 52.5 15.32 51.37 C11.17 38.98 7.2 26.55 3.47 14.02 C2.95 12.26 2.95 12.26 2.41 10.47 C1.94 8.85 1.94 8.85 1.45 7.2 C1.17 6.24 0.89 5.28 0.6 4.3 C0 2 0 2 0 0 Z " fill="#E4E4E4" transform="translate(607,375)"/>
<path d="M0 0 C4 4.73 7.29 9.89 10.69 15.06 C15.89 22.92 21.18 30.59 27 38 C27.65 38.84 28.3 39.69 28.97 40.55 C33.29 46.07 37.89 51.27 42.64 56.42 C44.59 58.55 46.46 60.72 48.31 62.94 C56.98 72.87 67.33 81.31 78 89 C78.56 89.4 79.12 89.81 79.69 90.23 C123.9 121.86 175.97 129.75 229 131 C227.13 135.01 224.5 137.98 221.5 141.19 C220.96 141.76 220.42 142.34 219.87 142.93 C192.46 171.95 157.01 185.49 118 190 C117.23 190.1 116.47 190.19 115.67 190.29 C59.44 196.84 -0.84 182.63 -55.37 170.16 C-68.52 167.16 -81.76 164.59 -95 162 C-95 157.48 -94.15 156.07 -91.88 152.25 C-91.38 151.41 -91.38 151.41 -90.88 150.55 C-89.78 148.69 -88.67 146.85 -87.56 145 C-86.79 143.69 -86.01 142.38 -85.23 141.08 C-79.4 131.25 -73.47 121.49 -67.52 111.74 C-62.11 102.87 -56.79 93.94 -51.5 85 C-44.89 73.83 -38.2 62.7 -31.44 51.62 C-27.56 45.26 -23.72 38.87 -19.93 32.46 C-19.29 31.38 -19.29 31.38 -18.63 30.27 C-16.56 26.76 -14.48 23.26 -12.42 19.74 C-8.46 13.04 -4.44 6.41 0 0 Z " fill="#30302D" transform="translate(672,578)"/>
<path d="M0 0 C0.66 0 1.32 0 2 0 C2.28 1.04 2.28 1.04 2.57 2.11 C20.42 68.24 38.43 134.42 60.44 199.31 C60.76 200.27 61.08 201.23 61.42 202.21 C65.58 214.5 65.58 214.5 70.29 226.58 C70.66 227.49 71.04 228.4 71.42 229.33 C72.14 231.05 72.88 232.76 73.63 234.47 C75.56 239.05 76.55 242.05 75 247 C73.74 249.32 72.46 251.44 71 253.62 C70.09 255.04 69.18 256.46 68.27 257.88 C67.75 258.68 67.24 259.48 66.71 260.3 C63.69 265.08 60.77 269.92 57.85 274.75 C56.37 277.19 54.89 279.62 53.42 282.06 C52.68 283.28 51.94 284.5 51.2 285.72 C47.75 291.42 44.28 297.12 40.81 302.81 C40.25 303.74 39.68 304.67 39.1 305.63 C37.97 307.49 36.83 309.35 35.7 311.21 C33.39 315.01 31.07 318.81 28.75 322.62 C27.59 324.53 26.43 326.44 25.26 328.35 C22.26 333.29 19.25 338.23 16.25 343.17 C15.64 344.19 15.02 345.21 14.38 346.26 C13.21 348.18 12.05 350.1 10.88 352.03 C7 358.4 3.03 364.72 -1 371 C-3.49 367.9 -5.25 364.72 -7 361.15 C-7.87 359.41 -7.87 359.41 -8.75 357.62 C-9.36 356.39 -9.96 355.17 -10.56 353.94 C-14.96 345.01 -19.47 336.16 -24.12 327.37 C-28.4 319.26 -32.59 311.1 -36.76 302.93 C-39.03 298.49 -41.3 294.05 -43.57 289.61 C-44.03 288.72 -44.48 287.83 -44.95 286.91 C-49.08 278.84 -53.21 270.78 -57.36 262.73 C-58.06 261.35 -58.77 259.97 -59.48 258.59 C-60.15 257.3 -60.81 256 -61.48 254.71 C-62.4 252.91 -63.32 251.12 -64.24 249.32 C-65.4 247.13 -66.61 244.96 -67.87 242.83 C-68.44 241.86 -69.01 240.89 -69.6 239.9 C-70.37 238.65 -70.37 238.65 -71.15 237.38 C-72 235 -72 235 -71.28 232.45 C-70.86 231.64 -70.44 230.83 -70 230 C-69.67 229.32 -69.33 228.64 -68.99 227.94 C-68.62 227.25 -68.26 226.57 -67.89 225.86 C-32.06 156.75 -9.17 77.18 0 0 Z " fill="#30302D" transform="translate(557,296)"/>
<path d="M0 0 C1.48 2.77 2.48 5.39 3.26 8.43 C3.6 9.75 3.6 9.75 3.95 11.1 C4.32 12.55 4.32 12.55 4.7 14.02 C5.24 16.13 5.79 18.24 6.34 20.34 C6.63 21.47 6.92 22.59 7.22 23.74 C24.2 89.32 43.59 154.41 64 219 C64.32 220.02 64.64 221.04 64.98 222.1 C81.01 273.52 81.01 273.52 100.26 323.8 C100.56 324.53 100.86 325.27 101.16 326.02 C101.89 327.73 102.71 329.39 103.56 331.04 C104.28 335.88 101.57 338.81 98.88 342.69 C97.75 344.39 96.62 346.09 95.49 347.79 C94.91 348.66 94.33 349.52 93.73 350.42 C91.07 354.39 88.54 358.45 86 362.5 C85 364.08 84 365.67 83 367.25 C82.26 368.43 82.26 368.43 81.5 369.62 C55.25 411.19 55.25 411.19 29 452.75 C28.5 453.53 28.01 454.32 27.5 455.13 C26.5 456.7 25.51 458.27 24.52 459.85 C21.92 463.97 19.32 468.09 16.72 472.21 C16.18 473.06 15.64 473.92 15.09 474.8 C14.06 476.43 13.03 478.05 12.01 479.68 C9.39 483.83 6.74 487.94 4 492 C1.14 488.5 -0.85 484.63 -2.88 480.62 C-3.25 479.9 -3.62 479.18 -3.99 478.44 C-4.78 476.9 -5.56 475.37 -6.35 473.83 C-8.38 469.82 -10.43 465.82 -12.48 461.82 C-12.88 461.04 -13.28 460.26 -13.69 459.46 C-16.55 453.87 -19.44 448.3 -22.38 442.75 C-23.13 441.32 -23.89 439.89 -24.65 438.45 C-25.02 437.74 -25.4 437.04 -25.78 436.31 C-28.21 431.71 -30.6 427.11 -33 422.5 C-36.63 415.53 -40.27 408.57 -43.94 401.62 C-48.39 393.19 -52.79 384.73 -57.18 376.26 C-60.46 369.96 -63.75 363.66 -67.06 357.38 C-70.9 350.09 -74.74 342.8 -78.56 335.5 C-79.35 334 -79.35 334 -80.15 332.47 C-80.64 331.54 -81.13 330.61 -81.63 329.66 C-82.06 328.83 -82.5 328 -82.94 327.15 C-84 325 -84 325 -85 322 C-84.14 319.57 -84.14 319.57 -82.75 316.63 C-82.23 315.52 -81.71 314.4 -81.18 313.26 C-80.75 312.36 -80.75 312.36 -80.32 311.44 C-71.96 293.66 -64.91 275.39 -58 257 C-57.55 255.8 -57.09 254.59 -56.62 253.35 C-42.87 216.71 -32.32 178.98 -23 141 C-22.7 139.79 -22.7 139.79 -22.4 138.56 C-11.35 93.27 -3.69 46.49 0 0 Z M5 89 C4.9 89.82 4.79 90.63 4.68 91.47 C-1.05 135.3 -11.3 178.47 -24.88 220.52 C-25.97 223.9 -27.04 227.3 -28.11 230.69 C-37.77 260.84 -49.59 291.84 -65.83 319.07 C-67.31 321.87 -67.31 321.87 -66.28 324.26 C-64.78 327.47 -63.24 330.65 -61.66 333.82 C-61.33 334.48 -61 335.14 -60.66 335.81 C-59.96 337.21 -59.26 338.61 -58.56 340.01 C-57.53 342.07 -56.5 344.13 -55.47 346.2 C-51.38 354.38 -47.18 362.48 -42.91 370.56 C-38.26 379.37 -33.74 388.25 -29.21 397.13 C-26.71 402.05 -24.19 406.97 -21.68 411.89 C-21.19 412.86 -20.7 413.82 -20.19 414.81 C-15.58 423.83 -10.93 432.83 -6.25 441.81 C-3.11 447.84 -0.02 453.9 3 460 C5.76 457.51 7.5 454.74 9.41 451.57 C10.08 450.46 10.75 449.35 11.44 448.2 C12.17 446.99 12.9 445.78 13.62 444.56 C14.38 443.3 15.15 442.04 15.91 440.78 C17.49 438.16 19.07 435.54 20.65 432.91 C23.92 427.47 27.21 422.04 30.51 416.61 C31.21 415.45 31.92 414.29 32.63 413.12 C38.37 403.66 44.15 394.23 49.96 384.82 C55.71 375.5 61.39 366.14 67.07 356.78 C68.05 355.14 68.05 355.14 69.06 353.48 C69.7 352.42 70.34 351.35 71 350.26 C72.4 347.97 73.83 345.73 75.31 343.5 C75.69 342.92 76.07 342.34 76.45 341.75 C77.5 340.15 78.56 338.56 79.63 336.97 C81.74 332.41 80.52 329.53 78.96 324.93 C78.53 323.83 78.1 322.72 77.66 321.59 C77.16 320.28 76.66 318.98 76.16 317.68 C75.75 316.64 75.75 316.64 75.34 315.57 C48.9 246.67 30.35 174.8 11 103.67 C9.67 98.78 8.33 93.89 7 89 C6.34 89 5.68 89 5 89 Z " fill="#EADE20" transform="translate(552,207)"/>
<path d="M0 0 C2.93 2.55 4.41 5.42 6.15 8.86 C6.45 9.44 6.74 10.02 7.05 10.62 C7.68 11.86 8.32 13.11 8.95 14.36 C10.63 17.68 12.33 21 14.04 24.32 C14.55 25.31 14.55 25.31 15.07 26.33 C17.91 31.86 20.86 37.31 23.88 42.75 C29.32 52.61 34.47 62.62 39.6 72.65 C44.66 82.54 49.82 92.36 55.25 102.06 C58.13 107.26 60.68 112.52 63 118 C61.99 118.06 61.99 118.06 60.95 118.12 C16.37 120.83 -27.75 128.93 -68 149 C-68.75 149.37 -69.49 149.74 -70.26 150.12 C-80.25 155.13 -89.76 160.71 -99 167 C-99.57 167.39 -100.15 167.78 -100.74 168.17 C-112.74 176.35 -123.54 185.77 -134.25 195.56 C-135.07 196.31 -135.07 196.31 -135.91 197.08 C-138.3 199.29 -140.19 201.28 -142 204 C-142.66 204 -143.32 204 -144 204 C-145.11 165.51 -133.28 131.4 -107.41 102.58 C-106.42 101.47 -105.45 100.36 -104.49 99.23 C-99.79 93.75 -94.78 88.6 -89.68 83.49 C-88.26 82.07 -86.85 80.65 -85.45 79.22 C-80.04 73.81 -74.49 68.77 -68.5 64.02 C-65.91 61.93 -63.45 59.74 -61 57.5 C-57.68 54.48 -54.3 51.57 -50.81 48.75 C-23.08 26.64 -23.08 26.64 0 0 Z " fill="#30302D" transform="translate(441,602)"/>
<path d="M0 0 C57.23 1.23 115.67 33 156 72 C156.65 72.63 157.31 73.26 157.98 73.91 C166.17 81.88 174.09 89.87 181 99 C181.4 99.52 181.81 100.05 182.23 100.58 C221.4 151.31 238.87 211.44 238 275 C237.99 275.78 237.99 276.57 237.98 277.38 C237.62 303.29 231.49 330.93 222 355 C215.99 353.42 210.19 351.41 204.44 349.06 C203.24 348.58 202.04 348.1 200.81 347.6 C198 346 198 346 197.26 344.16 C196.96 341.69 197.3 340.22 198.07 337.87 C198.33 337.07 198.58 336.28 198.84 335.46 C199.12 334.6 199.4 333.75 199.69 332.88 C218.15 273.32 211.6 209.08 183.3 153.62 C175.65 139.11 166.57 125.55 156 113 C155.33 112.19 155.33 112.19 154.64 111.37 C146.05 101.1 137.29 91.62 126.8 83.24 C124.99 81.8 123.21 80.32 121.45 78.82 C98.25 59.06 69.79 45.55 40.81 36.69 C40.02 36.44 39.23 36.2 38.42 35.95 C33.98 34.65 29.66 33.77 25.08 33.16 C10.74 31.09 10.74 31.09 7.51 27.2 C5.18 22.77 4.18 18.11 3.38 13.21 C2.86 10.19 2 7.3 1.12 4.38 C0.74 2.92 0.37 1.46 0 0 Z " fill="#EBDE20" transform="translate(595,337)"/>
<path d="M0 0 C-0.6 2.75 -1.21 5.5 -1.81 8.25 C-1.98 9.01 -2.14 9.77 -2.31 10.55 C-2.67 12.15 -3.04 13.74 -3.42 15.34 C-4.05 18.07 -4.05 18.07 -4.42 21.16 C-4.96 24.4 -5.54 27.04 -7 30 C-10.38 32.32 -13.89 32.97 -17.88 33.75 C-20.06 34.28 -22.25 34.82 -24.43 35.36 C-25.53 35.63 -26.63 35.89 -27.77 36.16 C-41.84 39.81 -55.24 46.14 -68 53 C-68.97 53.51 -68.97 53.51 -69.96 54.03 C-85.99 62.51 -100.47 72.96 -114 85 C-114.51 85.45 -115.02 85.89 -115.54 86.35 C-161.3 126.65 -188.71 185.92 -192.85 246.49 C-193.64 260.07 -192.96 273.47 -191.69 287 C-191.57 288.28 -191.45 289.55 -191.33 290.86 C-190.57 298.35 -189.36 305.56 -187.6 312.88 C-186.11 320.67 -186.11 320.67 -188.37 324.04 C-189.01 324.63 -189.64 325.23 -190.29 325.84 C-190.98 326.51 -191.68 327.18 -192.39 327.87 C-193.13 328.55 -193.87 329.24 -194.62 329.94 C-196.06 331.3 -197.49 332.66 -198.91 334.03 C-199.6 334.68 -200.29 335.34 -201 336.02 C-203.87 338.86 -206.43 341.89 -209 345 C-212.17 340.25 -213.01 334.82 -214.38 329.31 C-214.84 327.43 -214.84 327.43 -215.31 325.52 C-219.5 308.21 -222.69 290.83 -223 273 C-223.03 271.54 -223.03 271.54 -223.06 270.05 C-223.32 255.89 -223.01 242.03 -221 228 C-220.88 227.1 -220.75 226.19 -220.63 225.26 C-213.99 177.74 -194.87 133.5 -165 96 C-164.55 95.43 -164.1 94.86 -163.63 94.27 C-151.51 79.2 -137.53 64.56 -122 53 C-120.92 52.16 -119.83 51.33 -118.75 50.49 C-87.2 26.43 -40.88 0 0 0 Z " fill="#EBDE20" transform="translate(524,339)"/>
<path d="M0 0 C0.66 0 1.32 0 2 0 C2.33 0.61 2.65 1.21 2.99 1.84 C8.96 12.96 14.99 24.04 21.25 35 C26.91 44.92 32.27 54.98 37.6 65.08 C42.7 74.76 47.96 84.33 53.4 93.83 C57.62 101.24 61.57 108.77 65.47 116.36 C70.58 126.22 76.09 135.85 81.59 145.51 C83.52 148.93 85.43 152.36 87.31 155.81 C87.84 156.79 88.38 157.76 88.93 158.77 C90 161 90 161 90 163 C88.25 163.02 88.25 163.02 86.47 163.04 C6.38 164.12 -69.97 181.35 -127.74 240.55 C-134.18 247.53 -139.92 255.1 -145.64 262.67 C-147.62 265.28 -149.59 267.77 -152 270 C-162.64 226.68 -160.17 181.18 -137.29 142.11 C-124.86 121.79 -108.41 102.75 -90.45 87.14 C-88.13 85.11 -85.86 83.03 -83.6 80.92 C-78.46 76.15 -73.18 71.64 -67.71 67.25 C-63.93 64.11 -60.34 60.78 -56.73 57.45 C-54.16 55.14 -51.52 52.97 -48.81 50.81 C-41.16 44.62 -34.09 37.81 -27 31 C-26.06 30.1 -26.06 30.1 -25.09 29.18 C-15.74 20.22 -7.2 10.81 0 0 Z M0 29 C-1.19 30.46 -2.35 31.95 -3.5 33.44 C-12.62 44.7 -23.12 55.08 -34.53 64.03 C-37.12 66.09 -39.56 68.27 -42 70.5 C-45.32 73.52 -48.7 76.43 -52.19 79.25 C-75.06 97.79 -98.92 117.84 -116 142 C-116.42 142.59 -116.85 143.18 -117.29 143.79 C-134.28 167.62 -144.34 194.07 -144.06 223.56 C-144.06 224.48 -144.05 225.39 -144.05 226.33 C-144.04 228.55 -144.02 230.78 -144 233 C-140.68 231.89 -140.07 231.14 -137.94 228.5 C-92.74 175.52 -16.91 153.23 49.77 147.77 C54.18 147.45 58.59 147.21 63 147 C57.65 136.26 52.24 125.54 46.75 114.88 C46.38 114.16 46.01 113.44 45.63 112.7 C40.73 103.18 35.72 93.72 30.53 84.34 C25.77 75.68 21.28 66.89 16.77 58.1 C11.73 48.27 6.57 38.54 1 29 C0.67 29 0.34 29 0 29 Z " fill="#EADD20" transform="translate(441,573)"/>
<path d="M0 0 C3.1 2.09 5.67 4.67 8.34 7.26 C52.01 48.59 112.93 71.85 173 70.7 C229.32 68.83 282.86 50.04 325.52 12.73 C326.39 11.98 327.26 11.22 328.15 10.45 C328.69 9.91 329.23 9.37 329.79 8.81 C333.3 6.79 336.71 7.19 340.64 7.38 C341.45 7.4 342.27 7.43 343.11 7.46 C345.71 7.54 348.3 7.65 350.9 7.76 C352.67 7.82 354.43 7.89 356.2 7.95 C360.52 8.1 364.83 8.27 369.15 8.45 C358.78 20.88 347.11 32.72 334.15 42.45 C333.63 42.85 333.11 43.25 332.58 43.67 C289.57 76.89 234.86 98.49 180.15 99.45 C179.18 99.47 178.21 99.49 177.21 99.51 C163.04 99.77 149.18 99.46 135.15 97.45 C134.25 97.33 133.35 97.2 132.41 97.07 C74.24 88.96 21.86 62.02 -19.72 20.82 C-20.43 20.12 -21.14 19.42 -21.87 18.7 C-22.52 18.05 -23.17 17.4 -23.84 16.72 C-24.42 16.14 -25 15.56 -25.6 14.95 C-26.85 13.45 -26.85 13.45 -26.85 11.45 C-22.18 9.09 -17.51 6.75 -12.83 4.43 C-11.19 3.62 -9.55 2.79 -7.92 1.96 C-2.42 -0.72 -2.42 -0.72 0 0 Z " fill="#EBDE20" transform="translate(397.84765625,767.55078125)"/>
<path d="M0 0 C4 4.73 7.29 9.89 10.69 15.06 C15.89 22.92 21.18 30.59 27 38 C27.65 38.84 28.3 39.69 28.97 40.55 C33.29 46.07 37.89 51.27 42.64 56.42 C44.59 58.55 46.46 60.72 48.31 62.94 C56.98 72.87 67.33 81.31 78 89 C78.56 89.4 79.12 89.81 79.69 90.23 C123.9 121.86 175.97 129.75 229 131 C227.13 135.01 224.5 137.98 221.5 141.19 C220.96 141.76 220.42 142.34 219.87 142.93 C192.46 171.95 157.01 185.49 118 190 C117.23 190.1 116.47 190.19 115.67 190.29 C59.44 196.84 -0.84 182.63 -55.37 170.16 C-68.52 167.16 -81.76 164.59 -95 162 C-95 157.48 -94.15 156.07 -91.88 152.25 C-91.38 151.41 -91.38 151.41 -90.88 150.55 C-89.78 148.69 -88.67 146.85 -87.56 145 C-86.79 143.69 -86.01 142.38 -85.23 141.08 C-79.4 131.25 -73.47 121.49 -67.52 111.74 C-62.11 102.87 -56.79 93.94 -51.5 85 C-44.89 73.83 -38.2 62.7 -31.44 51.62 C-27.56 45.26 -23.72 38.87 -19.93 32.46 C-19.29 31.38 -19.29 31.38 -18.63 30.27 C-16.56 26.76 -14.48 23.26 -12.42 19.74 C-8.46 13.04 -4.44 6.41 0 0 Z M1 30 C-0.75 32.64 -2.45 35.31 -4.12 38 C-4.65 38.84 -5.18 39.69 -5.73 40.56 C-7.49 43.37 -9.24 46.18 -11 49 C-12.24 50.98 -13.47 52.96 -14.71 54.94 C-16.62 57.99 -18.52 61.04 -20.43 64.09 C-24.74 71 -29.08 77.89 -33.44 84.78 C-38.13 92.19 -42.77 99.63 -47.42 107.07 C-51.4 113.46 -55.41 119.83 -59.44 126.19 C-61.29 129.12 -63.15 132.06 -65 135 C-65.42 135.67 -65.85 136.35 -66.29 137.04 C-67.45 138.88 -68.6 140.72 -69.75 142.56 C-70.7 144.08 -70.7 144.08 -71.67 145.63 C-73.16 147.84 -73.16 147.84 -73 150 C12.51 170.48 12.51 170.48 100 176 C100.69 175.99 101.39 175.97 102.1 175.96 C131.71 175.24 167.12 168.16 190 148 C190 147.67 190 147.34 190 147 C189.39 146.94 188.79 146.88 188.16 146.82 C135.06 141.41 86.6 117.44 47 82 C45.98 81.1 44.95 80.2 43.93 79.3 C28.13 65.27 14.94 49.09 3.17 31.59 C2.79 31.07 2.4 30.54 2 30 C1.67 30 1.34 30 1 30 Z " fill="#EADD20" transform="translate(672,578)"/>
</svg>
