<svg xmlns="http://www.w3.org/2000/svg" version="1.1" viewBox="0 0 800 800" width="800" height="800">
    <style>
        @keyframes jotty-draw {
            0% {
                stroke-dashoffset: 1;
                fill-opacity: 0;
                stroke-opacity: 0;
            }
            10% {
                stroke-opacity: 1;
            }
            70% {
                fill-opacity: 0;
                stroke-opacity: 1;
            }
            100% {
                stroke-dashoffset: 0;
                fill-opacity: 1;
                stroke-opacity: 0;
            }
        }

        .jotty-path-animated {
            stroke-dasharray: 1;
            stroke-dashoffset: 1;
            stroke: rgb(157 95 254);
            fill: rgb(157 95 254);
            stroke-width: 10;
            fill-opacity: 0;
            animation: jotty-draw 5s cubic-bezier(0.4, 0, 0.2, 1) forwards;
        }
    </style>
    <path
        d="M0 0 C2.25 -0.01 4.5 -0.02 6.76 -0.03 C12.86 -0.05 18.97 -0.04 25.08 -0.02 C31.02 -0.01 36.96 -0.03 42.89 -0.04 C55.77 -0.07 68.64 -0.07 81.51 -0.05 C92.78 -0.04 104.04 -0.03 115.31 -0.04 C116.06 -0.04 116.81 -0.04 117.58 -0.04 C120.63 -0.04 123.67 -0.05 126.72 -0.05 C155.24 -0.07 183.75 -0.05 212.27 -0.02 C237.55 0.01 262.83 0.01 288.11 -0.02 C316.58 -0.05 345.05 -0.07 373.51 -0.05 C376.55 -0.04 379.59 -0.04 382.63 -0.04 C383.38 -0.04 384.13 -0.04 384.9 -0.04 C396.15 -0.03 407.41 -0.04 418.66 -0.06 C431.47 -0.07 444.28 -0.07 457.08 -0.04 C463.61 -0.02 470.13 -0.01 476.66 -0.03 C482.65 -0.05 488.64 -0.04 494.63 -0.01 C496.78 -0 498.93 -0.01 501.08 -0.02 C531.72 -0.22 562.53 8.86 586.16 29.06 C587.43 30.34 588.66 31.64 589.86 32.98 C591.59 34.89 593.43 36.49 595.41 38.14 C615.8 55.82 628.17 80.9 634.47 106.76 C634.66 107.47 634.84 108.19 635.03 108.92 C637.25 119 636.75 129.34 636.73 139.6 C636.74 141.84 636.74 144.08 636.74 146.32 C636.75 152.46 636.75 158.6 636.75 164.74 C636.75 170.69 636.75 176.63 636.76 182.58 C636.77 196.23 636.78 209.89 636.77 223.55 C636.77 234.1 636.77 244.65 636.78 255.2 C636.78 256.71 636.78 258.23 636.78 259.75 C636.78 262.03 636.78 264.32 636.78 266.6 C636.79 287.85 636.8 309.09 636.79 330.34 C636.79 331.14 636.79 331.94 636.79 332.76 C636.79 336.82 636.79 340.88 636.79 344.93 C636.79 345.74 636.79 346.54 636.79 347.37 C636.79 349 636.79 350.63 636.79 352.26 C636.78 377.61 636.79 402.96 636.81 428.32 C636.83 456.81 636.84 485.31 636.84 513.81 C636.83 516.85 636.83 519.89 636.83 522.93 C636.83 523.68 636.83 524.42 636.83 525.2 C636.83 536.48 636.84 547.77 636.85 559.06 C636.86 571.9 636.86 584.74 636.85 597.58 C636.85 604.13 636.84 610.68 636.86 617.23 C636.87 623.23 636.86 629.23 636.85 635.23 C636.85 637.39 636.85 639.56 636.86 641.72 C636.9 653.18 636.53 663.65 633.47 674.76 C633.17 675.95 632.87 677.13 632.56 678.36 C629.17 691.57 623.66 703.29 616.47 714.82 C615.99 715.61 615.5 716.39 615 717.2 C612.1 721.71 609 725.51 605.1 729.18 C603.38 730.85 601.87 732.61 600.35 734.45 C591.6 744.51 582.04 752.18 570.47 758.76 C568.82 759.8 567.18 760.84 565.53 761.89 C544.77 774.08 521.69 777.69 497.94 777.52 C495.69 777.53 493.44 777.54 491.19 777.55 C485.08 777.58 478.97 777.56 472.86 777.55 C466.92 777.53 460.99 777.55 455.05 777.57 C442.18 777.6 429.3 777.59 416.43 777.58 C405.17 777.56 393.9 777.56 382.63 777.56 C381.51 777.57 381.51 777.57 380.36 777.57 C377.31 777.57 374.27 777.57 371.22 777.57 C342.71 777.59 314.19 777.57 285.67 777.54 C260.39 777.51 235.11 777.52 209.83 777.54 C181.37 777.58 152.9 777.59 124.43 777.57 C121.39 777.57 118.35 777.57 115.31 777.56 C114.56 777.56 113.81 777.56 113.04 777.56 C101.79 777.56 90.54 777.56 79.28 777.58 C66.47 777.6 53.67 777.59 40.86 777.56 C34.33 777.54 27.81 777.54 21.28 777.56 C15.3 777.58 9.31 777.57 3.32 777.53 C1.17 777.53 -0.98 777.53 -3.13 777.55 C-25.45 777.69 -46.72 773.24 -66.53 762.76 C-67.19 762.41 -67.85 762.06 -68.53 761.7 C-78.2 756.48 -86.35 750.06 -94.53 742.76 C-95.28 742.15 -96.03 741.53 -96.8 740.89 C-102.51 736.18 -107.01 730.61 -111.53 724.76 C-112.24 723.86 -112.24 723.86 -112.96 722.93 C-132.21 697.94 -139.33 668.88 -139.18 637.79 C-139.19 635.58 -139.2 633.36 -139.21 631.15 C-139.24 625.13 -139.23 619.11 -139.22 613.1 C-139.22 607.25 -139.24 601.41 -139.26 595.56 C-139.29 583.62 -139.3 571.68 -139.3 559.74 C-139.3 547.92 -139.31 536.1 -139.33 524.29 C-139.33 523.55 -139.34 522.81 -139.34 522.05 C-139.34 519.05 -139.35 516.06 -139.35 513.06 C-139.41 485.02 -139.43 456.98 -139.44 428.93 C-139.45 404.05 -139.48 379.17 -139.53 354.28 C-139.53 353.49 -139.53 352.7 -139.53 351.88 C-139.54 349.49 -139.54 347.09 -139.54 344.7 C-139.55 341.51 -139.55 338.33 -139.56 335.15 C-139.56 334.37 -139.56 333.58 -139.56 332.77 C-139.61 308.2 -139.64 283.64 -139.66 259.07 C-139.67 250.93 -139.68 242.8 -139.69 234.66 C-139.7 233.93 -139.7 233.2 -139.7 232.44 C-139.7 231.71 -139.7 230.99 -139.7 230.23 C-139.72 216.17 -139.74 202.1 -139.74 188.03 C-139.74 181.6 -139.74 175.18 -139.76 168.76 C-139.77 162.87 -139.77 156.98 -139.77 151.09 C-139.76 148.97 -139.77 146.85 -139.77 144.73 C-139.82 129.09 -139.17 113.98 -134.9 98.82 C-134.64 97.9 -134.38 96.97 -134.12 96.01 C-128.69 77.42 -118.92 59.78 -105.53 45.76 C-104.4 44.41 -103.28 43.06 -102.15 41.7 C-98.78 37.83 -94.97 34.75 -90.92 31.63 C-88.95 30.09 -87.16 28.52 -85.34 26.82 C-61.9 6.71 -30.01 -0.21 0 0 Z M-42.53 82.76 C-43.66 83.49 -43.66 83.49 -44.81 84.22 C-50.85 88.25 -54.58 93.76 -58.53 99.76 C-59.16 100.67 -59.79 101.57 -60.45 102.51 C-70.04 117.26 -70.12 134.45 -70.03 151.46 C-70.03 153.6 -70.04 155.74 -70.05 157.87 C-70.06 163.7 -70.05 169.53 -70.04 175.35 C-70.03 181.66 -70.04 187.96 -70.05 194.26 C-70.06 205.88 -70.05 217.49 -70.04 229.11 C-70.03 239.84 -70.02 250.57 -70.02 261.3 C-70.02 262.02 -70.03 262.73 -70.03 263.46 C-70.03 266.36 -70.03 269.26 -70.03 272.15 C-70.03 299.29 -70.02 326.42 -69.99 353.56 C-69.97 377.64 -69.96 401.72 -69.97 425.81 C-69.98 431.98 -69.98 438.15 -69.98 444.32 C-69.98 445.08 -69.98 445.84 -69.98 446.62 C-69.99 466.78 -69.98 486.93 -69.97 507.09 C-69.97 509.26 -69.97 511.43 -69.97 513.6 C-69.97 515.03 -69.97 516.47 -69.97 517.91 C-69.96 528.64 -69.96 539.36 -69.97 550.09 C-69.97 562.28 -69.97 574.48 -69.95 586.67 C-69.94 592.89 -69.93 599.11 -69.94 605.33 C-69.95 611.03 -69.94 616.73 -69.92 622.43 C-69.92 624.48 -69.92 626.54 -69.93 628.6 C-69.96 639.76 -69.51 649.93 -66.53 660.76 C-66.19 662.04 -66.19 662.04 -65.85 663.35 C-64.07 669.89 -60.35 675.24 -56.53 680.76 C-56.02 681.55 -55.5 682.33 -54.97 683.14 C-50.11 690.1 -43.63 694.38 -36.53 698.76 C-35.31 699.52 -35.31 699.52 -34.06 700.3 C-19.91 708.21 -3.73 708.35 12.01 708.28 C14.14 708.28 16.27 708.29 18.41 708.3 C24.23 708.32 30.04 708.31 35.86 708.3 C42.15 708.29 48.44 708.31 54.73 708.32 C66.33 708.34 77.93 708.34 89.53 708.34 C100.25 708.33 110.97 708.33 121.68 708.34 C123.12 708.34 124.57 708.34 126.01 708.34 C128.18 708.34 130.35 708.34 132.52 708.34 C152.7 708.36 172.88 708.36 193.06 708.35 C193.82 708.35 194.58 708.35 195.36 708.35 C201.53 708.34 207.69 708.34 213.86 708.34 C237.91 708.32 261.96 708.33 286.01 708.36 C313.07 708.39 340.13 708.41 367.19 708.4 C370.08 708.39 372.97 708.39 375.86 708.39 C376.92 708.39 376.92 708.39 378.01 708.39 C388.72 708.39 399.42 708.4 410.13 708.41 C422.31 708.43 434.5 708.43 446.68 708.41 C452.89 708.4 459.1 708.39 465.31 708.41 C471.01 708.43 476.71 708.42 482.4 708.4 C484.45 708.39 486.5 708.4 488.55 708.41 C508.09 708.52 529.24 706.26 544.16 692.24 C546.02 690.24 547.84 688.24 549.6 686.14 C551.01 684.45 552.39 682.83 553.99 681.32 C555.71 679.51 556.78 677.69 557.97 675.51 C558.37 674.78 558.78 674.06 559.19 673.31 C567 657.78 568.06 642.38 567.97 625.28 C567.97 623.16 567.97 621.03 567.98 618.91 C567.99 613.11 567.98 607.31 567.97 601.51 C567.95 595.24 567.96 588.97 567.97 582.7 C567.98 571.85 567.97 560.99 567.96 550.14 C567.94 538.76 567.93 527.38 567.93 515.99 C567.93 515.29 567.93 514.58 567.93 513.84 C567.93 510.96 567.93 508.08 567.93 505.2 C567.93 478.21 567.91 451.22 567.88 424.23 C567.85 400.26 567.84 376.3 567.84 352.34 C567.84 350.8 567.84 349.26 567.84 347.72 C567.84 346.96 567.84 346.2 567.84 345.41 C567.84 341.58 567.84 337.75 567.84 333.92 C567.84 333.16 567.84 332.41 567.84 331.63 C567.84 311.58 567.83 291.53 567.82 271.48 C567.82 270.77 567.82 270.06 567.82 269.32 C567.82 266.45 567.82 263.58 567.82 260.72 C567.81 250.75 567.81 240.79 567.81 230.82 C567.8 217.98 567.8 205.14 567.78 192.3 C567.77 186.11 567.76 179.92 567.76 173.73 C567.77 168.07 567.76 162.4 567.74 156.73 C567.74 154.68 567.74 152.64 567.74 150.59 C567.78 127.62 564.74 107.23 548.45 89.6 C544.45 85.88 540.01 82.78 535.47 79.76 C534.9 79.37 534.33 78.98 533.74 78.57 C528.94 75.4 524.4 73.42 518.84 71.99 C518.01 71.78 517.19 71.57 516.35 71.35 C506.5 69.03 496.73 69.07 486.66 69.13 C484.52 69.12 482.38 69.11 480.24 69.1 C474.42 69.08 468.59 69.09 462.77 69.11 C456.46 69.12 450.16 69.1 443.86 69.09 C432.25 69.07 420.63 69.07 409.02 69.08 C398.28 69.1 387.55 69.1 376.82 69.09 C376.1 69.09 375.39 69.09 374.65 69.09 C371.76 69.09 368.86 69.09 365.96 69.09 C338.81 69.07 311.65 69.09 284.5 69.11 C260.42 69.14 236.33 69.13 212.25 69.11 C185.15 69.08 158.04 69.07 130.94 69.09 C128.05 69.09 125.15 69.09 122.26 69.09 C121.55 69.09 120.83 69.09 120.1 69.09 C109.38 69.1 98.66 69.09 87.94 69.08 C75.74 69.07 63.54 69.07 51.33 69.1 C45.12 69.11 38.9 69.12 32.68 69.1 C26.98 69.08 21.27 69.09 15.57 69.12 C13.52 69.12 11.47 69.12 9.41 69.11 C-9.62 69 -26.84 71.33 -42.53 82.76 Z "
        class="jotty-path-animated"
        transform="translate(149.5284423828125,13.23809814453125)"
        pathLength="1"
    />
    <path
        d="M0 0 C0.8 -0 1.6 -0.01 2.42 -0.01 C5.1 -0.02 7.77 -0.02 10.44 -0.01 C12.36 -0.02 14.28 -0.02 16.19 -0.03 C21.4 -0.04 26.61 -0.04 31.81 -0.04 C36.16 -0.04 40.51 -0.04 44.86 -0.05 C55.12 -0.06 65.38 -0.06 75.64 -0.05 C86.23 -0.05 96.81 -0.06 107.39 -0.08 C116.47 -0.1 125.56 -0.11 134.65 -0.1 C140.08 -0.1 145.5 -0.1 150.93 -0.12 C156.03 -0.13 161.14 -0.13 166.24 -0.12 C168.11 -0.11 169.98 -0.12 171.85 -0.12 C174.41 -0.13 176.97 -0.13 179.53 -0.11 C180.63 -0.12 180.63 -0.12 181.76 -0.14 C189.84 -0.05 196.18 2.55 201.89 8.26 C204.73 13.06 206.01 17.19 206.02 22.73 C206.02 23.62 206.03 24.52 206.03 25.44 C206.03 26.91 206.03 26.91 206.03 28.41 C206.03 29.45 206.03 30.49 206.03 31.57 C206.04 35.07 206.04 38.58 206.04 42.09 C206.04 44.6 206.04 47.11 206.05 49.62 C206.05 55.73 206.06 61.85 206.06 67.97 C206.06 72.94 206.06 77.91 206.06 82.89 C206.07 96.99 206.08 111.09 206.08 125.19 C206.08 125.95 206.08 126.71 206.08 127.5 C206.08 128.26 206.08 129.02 206.08 129.8 C206.08 142.14 206.09 154.47 206.1 166.8 C206.11 179.47 206.12 192.13 206.12 204.8 C206.12 211.91 206.12 219.02 206.13 226.13 C206.14 232.81 206.14 239.5 206.14 246.19 C206.13 248.64 206.14 251.1 206.14 253.55 C206.15 256.9 206.15 260.26 206.14 263.61 C206.14 264.58 206.15 265.55 206.15 266.55 C206.13 272.14 205.45 276.89 203.89 282.26 C203.65 283.66 203.43 285.05 203.25 286.46 C201.07 302.56 197.51 318.79 189.89 333.26 C189.41 334.23 188.94 335.2 188.45 336.21 C176.52 359.66 157.99 380.92 135.89 395.26 C134.96 395.88 134.04 396.51 133.08 397.15 C126.56 401.37 119.89 404.81 112.83 408.01 C112.03 408.38 111.22 408.74 110.4 409.12 C91.15 417.61 64.85 425.99 43.77 420.14 C38.82 418.06 34.51 415.2 31.88 410.41 C28.29 401.58 26.25 392.32 24.02 383.07 C23.35 380.36 22.68 377.64 22.01 374.93 C21.57 373.15 21.14 371.36 20.7 369.58 C19.08 363 17.39 356.44 15.64 349.89 C14.72 346.35 13.8 342.8 12.89 339.26 C12.47 337.63 12.47 337.63 12.03 335.96 C11.13 332.46 10.26 328.96 9.39 325.45 C8.97 323.85 8.97 323.85 8.54 322.21 C6.57 314.03 6.66 307.48 10.64 299.95 C15.53 294.1 20.22 290.71 27.91 289.97 C28.95 289.95 29.99 289.94 31.07 289.92 C32.8 289.87 32.8 289.87 34.58 289.83 C35.77 289.81 36.97 289.78 38.2 289.76 C54.08 289.83 54.08 289.83 67.23 282.13 C71.93 276.84 73.01 271.3 73.05 264.46 C73.06 263.28 73.07 262.1 73.08 260.88 C73.09 259.58 73.09 258.29 73.1 256.96 C73.11 255.58 73.12 254.2 73.13 252.82 C73.15 249.07 73.17 245.33 73.19 241.59 C73.22 237.67 73.24 233.76 73.27 229.85 C73.32 222.44 73.37 215.03 73.41 207.62 C73.46 199.18 73.51 190.75 73.57 182.31 C73.68 164.96 73.79 147.61 73.89 130.26 C72.91 130.27 71.93 130.27 70.91 130.28 C61.63 130.34 52.35 130.39 43.07 130.42 C38.29 130.43 33.52 130.45 28.75 130.49 C24.14 130.52 19.53 130.54 14.92 130.55 C13.17 130.55 11.41 130.56 9.66 130.58 C-10.74 130.76 -10.74 130.76 -18.48 124.95 C-25.01 118.26 -25.26 111.02 -25.29 102.21 C-25.29 101.3 -25.3 100.4 -25.31 99.47 C-25.33 96.49 -25.34 93.51 -25.35 90.53 C-25.35 89.51 -25.36 88.48 -25.36 87.43 C-25.38 82.03 -25.39 76.62 -25.4 71.22 C-25.41 65.65 -25.45 60.08 -25.49 54.51 C-25.52 50.21 -25.52 45.92 -25.53 41.63 C-25.53 39.57 -25.54 37.52 -25.56 35.47 C-25.59 32.59 -25.59 29.71 -25.58 26.83 C-25.59 25.99 -25.6 25.15 -25.62 24.29 C-25.56 17.6 -23.99 11.42 -19.39 6.37 C-13.65 1.01 -7.71 -0.04 0 0 Z "
        class="jotty-path-animated"
        transform="translate(312.1086120605469,191.7393035888672)"
        pathLength="1"
    />
</svg>